<svg width="36" height="36" viewBox="0 0 36 36" fill="none" xmlns="http://www.w3.org/2000/svg">
<path d="M6.00001 27C5.57501 27 5.21901 26.856 4.93201 26.568C4.64501 26.28 4.50101 25.924 4.50001 25.5C4.49901 25.076 4.64301 24.72 4.93201 24.432C5.22101 24.144 5.57701 24 6.00001 24H30C30.425 24 30.7815 24.144 31.0695 24.432C31.3575 24.72 31.501 25.076 31.5 25.5C31.499 25.924 31.355 26.2805 31.068 26.5695C30.781 26.8585 30.425 27.002 30 27H6.00001ZM6.00001 19.5C5.57501 19.5 5.21901 19.356 4.93201 19.068C4.64501 18.78 4.50101 18.424 4.50001 18C4.49901 17.576 4.64301 17.22 4.93201 16.932C5.22101 16.644 5.57701 16.5 6.00001 16.5H30C30.425 16.5 30.7815 16.644 31.0695 16.932C31.3575 17.22 31.501 17.576 31.5 18C31.499 18.424 31.355 18.7805 31.068 19.0695C30.781 19.3585 30.425 19.502 30 19.5H6.00001ZM6.00001 12C5.57501 12 5.21901 11.856 4.93201 11.568C4.64501 11.28 4.50101 10.924 4.50001 10.5C4.49901 10.076 4.64301 9.72 4.93201 9.432C5.22101 9.144 5.57701 9 6.00001 9H30C30.425 9 30.7815 9.144 31.0695 9.432C31.3575 9.72 31.501 10.076 31.5 10.5C31.499 10.924 31.355 11.2805 31.068 11.5695C30.781 11.8585 30.425 12.002 30 12H6.00001Z" fill="#4A6FA5"/>
</svg>
