<svg width="36" height="36" viewBox="0 0 36 36" fill="none" xmlns="http://www.w3.org/2000/svg">
<path d="M9.93 16.185C12.09 20.43 15.57 23.91 19.815 26.07L23.115 22.77C23.535 22.35 24.12 22.23 24.645 22.395C26.325 22.95 28.125 23.25 30 23.25C30.3978 23.25 30.7794 23.408 31.0607 23.6893C31.342 23.9706 31.5 24.3522 31.5 24.75V30C31.5 30.3978 31.342 30.7794 31.0607 31.0607C30.7794 31.342 30.3978 31.5 30 31.5C23.237 31.5 16.751 28.8134 11.9688 24.0312C7.1866 19.249 4.5 12.763 4.5 6C4.5 5.60218 4.65804 5.22064 4.93934 4.93934C5.22064 4.65804 5.60218 4.5 6 4.5H11.25C11.6478 4.5 12.0294 4.65804 12.3107 4.93934C12.592 5.22064 12.75 5.60218 12.75 6C12.75 7.875 13.05 9.675 13.605 11.355C13.77 11.88 13.65 12.465 13.23 12.885L9.93 16.185Z" fill="#4A6FA5"/>
</svg>
